<svg xmlns="http://www.w3.org/2000/svg" xmlns:xlink="http://www.w3.org/1999/xlink" version="1.1" id="Layer_1" x="0px" y="0px" viewBox="0 0 272.6 60.7" style="enable-background:new 0 0 272.6 60.7;" xml:space="preserve">
<style type="text/css">
	.st0{fill:#FFFFFF;}
</style>
<g>
	<polygon class="st0" points="8.1,8.4 6.3,8.4 6.3,52.3 9.7,52.3 9.7,30.2 26.7,30.2 26.7,26.9 9.7,26.9 9.7,11.6 27.4,11.6    27.4,8.4 9.7,8.4  "/>
	<path class="st0" d="M103.4,32.4c2.2-1,4-2.4,5.3-4.4c1.3-1.9,1.9-4.2,1.9-6.9c0-2.7-0.7-5-1.9-6.9c-1.3-1.9-3.1-3.3-5.3-4.3   s-4.8-1.5-7.6-1.5h-6.6h-1.6h-1.8v44h3.5V33.9h5.8l12.8,18.5h4.3L98.6,33.7C100.3,33.4,101.9,33,103.4,32.4z M89.1,11.4h6.6   c2.2,0,4.2,0.4,5.9,1.1s3.1,1.8,4.1,3.3c1,1.4,1.5,3.2,1.5,5.3c0,2.1-0.5,3.9-1.4,5.3c-1,1.5-2.3,2.5-4.1,3.3   c-1.7,0.7-3.7,1.1-5.9,1.1h-6.6L89.1,11.4L89.1,11.4z"/>
	<path class="st0" d="M142.6,10.1c-2.5-1.1-5.7-1.7-9.4-1.7h-4.6h-4h-6.7v44h10.6V37.1h4.6c3.7,0,6.9-0.6,9.4-1.7   c2.5-1.2,4.4-2.8,5.8-5c1.3-2.2,1.9-4.7,1.9-7.6c0-3-0.6-5.6-1.9-7.7C147,12.9,145.1,11.2,142.6,10.1z M138.2,26.9   c-1.2,1-2.9,1.5-5,1.5h-4.6V17.1h4.6c2.1,0,3.8,0.5,5,1.5c1.2,1,1.8,2.4,1.8,4.2C140,24.6,139.4,25.9,138.2,26.9z"/>
	<rect x="157.1" y="8.4" class="st0" width="10.8" height="44"/>
	<polygon class="st0" points="206.6,32.9 179,8.4 179,52.4 188.3,52.4 188.3,27.9 215.9,52.3 215.9,8.4 206.6,8.4  "/>
	<polygon class="st0" points="266.4,52.3 247.6,29 265.4,8.4 253,8.4 238,25.7 238,8.4 227.1,8.4 227.1,52.3 238,52.3 238,33.1    253.5,52.3  "/>
	<path class="st0" d="M76,21.4c-1.1-2.7-2.6-5.1-4.6-7.2c-2-2-4.3-3.6-6.9-4.7c-2.7-1.1-5.6-1.7-8.7-1.7s-6,0.6-8.7,1.7   s-5,2.7-6.9,4.7c-2,2-3.5,4.4-4.6,7.2s-1.6,5.7-1.6,9c0,3.2,0.5,6.2,1.6,9s2.6,5.1,4.6,7.2s4.3,3.6,6.9,4.7   c2.7,1.1,5.6,1.7,8.7,1.7s6-0.6,8.7-1.7c2.7-1.1,5-2.7,6.9-4.7s3.5-4.4,4.6-7.2s1.6-5.7,1.6-9C77.6,27.1,77.1,24.1,76,21.4z"/>
</g>
</svg>