<?xml version="1.0" encoding="utf-8"?>
<!-- Generator: Adobe Illustrator 26.0.1, SVG Export Plug-In . SVG Version: 6.00 Build 0)  -->
<svg version="1.1" id="Layer_1" xmlns="http://www.w3.org/2000/svg" xmlns:xlink="http://www.w3.org/1999/xlink" x="0px" y="0px"
	 viewBox="0 0 272.64 60.72" style="enable-background:new 0 0 272.64 60.72;" xml:space="preserve">
<style type="text/css">
	.st0{fill:#F18DAA;}
</style>
<g>
	<polygon class="st0" points="8.08,8.37 6.26,8.37 6.26,52.35 9.72,52.35 9.72,30.17 26.74,30.17 26.74,26.9 9.72,26.9 9.72,11.64 
		27.37,11.64 27.37,8.37 9.72,8.37 	"/>
	<path class="st0" d="M103.36,32.4c2.24-0.98,4.01-2.44,5.31-4.37c1.3-1.93,1.95-4.23,1.95-6.91c0-2.72-0.65-5.03-1.95-6.91
		c-1.3-1.89-3.07-3.33-5.31-4.34c-2.24-1.01-4.79-1.51-7.63-1.51h-6.6H87.5h-1.82v43.98h3.46V33.88h5.77l12.83,18.47H112
		L98.64,33.67C100.33,33.44,101.92,33.04,103.36,32.4z M89.13,11.45h6.6c2.22,0,4.19,0.38,5.91,1.13c1.72,0.75,3.07,1.84,4.05,3.27
		c0.98,1.42,1.48,3.18,1.48,5.28c0,2.09-0.48,3.86-1.44,5.31c-0.96,1.45-2.32,2.53-4.05,3.27c-1.74,0.73-3.72,1.1-5.94,1.1h-6.6
		V11.45z"/>
	<path class="st0" d="M142.57,10.1c-2.53-1.15-5.67-1.73-9.39-1.73h-4.65h-3.96h-6.66v43.98h10.62V37.08h4.65
		c3.73,0,6.86-0.58,9.39-1.73c2.53-1.15,4.45-2.81,5.75-4.96c1.3-2.16,1.95-4.7,1.95-7.63c0-3.02-0.65-5.59-1.95-7.73
		C147.02,12.89,145.1,11.25,142.57,10.1z M138.2,26.9c-1.22,0.96-2.89,1.45-5.03,1.45h-4.65V17.1h4.65c2.14,0,3.81,0.48,5.03,1.45
		c1.21,0.96,1.82,2.37,1.82,4.21C140.03,24.56,139.42,25.94,138.2,26.9z"/>
	<rect x="157.05" y="8.37" class="st0" width="10.81" height="43.98"/>
	<polygon class="st0" points="206.59,32.87 179,8.37 179,52.36 188.26,52.36 188.26,27.85 215.9,52.35 215.9,8.36 206.59,8.36 	"/>
	<polygon class="st0" points="266.38,52.35 247.59,28.98 265.43,8.37 252.99,8.37 238.04,25.72 238.04,8.37 227.05,8.37 
		227.05,52.35 238.04,52.35 238.04,33.12 253.5,52.35 	"/>
	<path class="st0" d="M76,21.41c-1.09-2.74-2.62-5.13-4.59-7.16c-1.97-2.03-4.28-3.61-6.94-4.74c-2.66-1.13-5.56-1.7-8.7-1.7
		c-3.14,0-6.04,0.57-8.7,1.7c-2.66,1.13-4.97,2.71-6.94,4.74c-1.97,2.03-3.5,4.42-4.59,7.16c-1.09,2.74-1.63,5.73-1.63,8.95
		c0,3.23,0.54,6.21,1.63,8.95c1.09,2.74,2.62,5.13,4.59,7.16c1.97,2.03,4.28,3.61,6.94,4.74c2.66,1.13,5.56,1.7,8.7,1.7
		c3.14,0,6.04-0.57,8.7-1.7c2.66-1.13,4.97-2.71,6.94-4.74c1.97-2.03,3.5-4.42,4.59-7.16c1.09-2.74,1.63-5.73,1.63-8.95
		C77.64,27.13,77.09,24.15,76,21.41z"/>
</g>
</svg>
